<?xml version="1.0" encoding="UTF-8" standalone="no"?>
<svg xmlns:dc="http://purl.org/dc/elements/1.1/" xmlns:cc="http://creativecommons.org/ns#" xmlns:rdf="http://www.w3.org/1999/02/22-rdf-syntax-ns#" xmlns:svg="http://www.w3.org/2000/svg" xmlns="http://www.w3.org/2000/svg" xmlns:sodipodi="http://sodipodi.sourceforge.net/DTD/sodipodi-0.dtd" xmlns:inkscape="http://www.inkscape.org/namespaces/inkscape" version="1.1" id="svg2" xml:space="preserve" width="664.50665" height="555.22668" viewBox="0 0 664.50665 555.22668" sodipodi:docname="1282917331-vector.eps"><metadata id="metadata8"><rdf:RDF><cc:Work rdf:about=""><dc:format>image/svg+xml</dc:format><dc:type rdf:resource="http://purl.org/dc/dcmitype/StillImage"/></cc:Work></rdf:RDF></metadata><defs id="defs6"/><sodipodi:namedview pagecolor="#ffffff" bordercolor="#666666" borderopacity="1" objecttolerance="10" gridtolerance="10" guidetolerance="10" inkscape:pageopacity="0" inkscape:pageshadow="2" inkscape:window-width="640" inkscape:window-height="480" id="namedview4"/><g id="g10" inkscape:groupmode="layer" inkscape:label="ink_ext_XXXXXX" transform="matrix(1.3333333,0,0,-1.3333333,0,555.22667)"><g id="g12" transform="scale(0.1)"><path d="m 3829.48,1603.63 c 3.51,96.71 -34.69,187.83 -101.13,252.36 l 243.62,242.96 c 150.19,-142.22 214.53,-354.35 166.79,-557.45 -50.46,-214.97 -217.66,-383.06 -432.32,-434.35 -204.39,-49.06 -418.36,15.68 -561.23,167.52 l 108.37,108.15 c 86.48,-89.46 216.97,-124.66 338.43,-87.65 136.85,41.63 232.24,165.49 237.47,308.46" style="fill:#2a333f;fill-opacity:1;fill-rule:evenodd;stroke:none" id="path14"/><path d="m 3018.33,1148.17 c 301.62,-272.272 764.01,-263.022 1054.58,22.72 293.05,288.15 307.75,755.87 33.38,1061.88 352.9,213.5 642.55,517.08 839.21,879.59 -7.72,-313.4 -141.16,-610.49 -370.1,-824.6 C 4866.37,1823.01 4753.18,1212.71 4314.8,883.34 3876.46,553.781 3258.81,614.699 2893.27,1023.3 l 125.06,124.87" style="fill:#2a333f;fill-opacity:1;fill-rule:evenodd;stroke:none" id="path16"/><path d="M 122.535,3247.93 C 321,2780.37 733.324,2437.62 1229.39,2328.08 1765.58,2117.34 2140,1625.74 2200.52,1052.67 l 291.38,-293.201 291.38,293.201 c 60.5,573.07 434.92,1064.67 971.12,1275.41 496.06,109.54 908.37,452.29 1106.84,919.85 -58.3,-86.36 -152.73,-141.67 -256.58,-150.21 323.96,250.3 457.17,676.19 333.49,1066.45 C 4704.3,3638.29 4287.65,3215.05 3765.45,2973.1 L 2491.9,1936.01 1218.33,2973.1 C 696.121,3215.05 279.477,3638.29 45.6133,4164.17 -78.043,3773.91 55.1641,3348.02 379.117,3097.72 c -103.859,8.54 -198.273,63.85 -256.582,150.21" style="fill:#2a333f;fill-opacity:1;fill-rule:evenodd;stroke:none" id="path18"/><path d="m 1154.29,1603.63 c -3.52,96.71 34.69,187.83 101.14,252.36 l -243.61,242.96 C 861.617,1956.73 797.27,1744.6 845.023,1541.5 c 50.473,-214.97 217.767,-383.06 432.427,-434.35 204.3,-49.06 418.25,15.68 561.13,167.52 l -108.39,108.15 c -86.46,-89.46 -216.87,-124.66 -338.42,-87.65 -136.84,41.63 -232.25,165.49 -237.48,308.46" style="fill:#2a333f;fill-opacity:1;fill-rule:evenodd;stroke:none" id="path20"/><path d="M 1965.45,1148.17 C 1663.83,875.898 1201.54,885.148 910.98,1170.89 617.809,1459.04 603.121,1926.76 877.496,2232.77 524.602,2446.27 235.043,2749.85 38.2813,3112.36 46.1211,2798.96 179.441,2501.87 408.473,2287.76 117.406,1823.01 230.613,1212.71 668.977,883.34 1107.44,553.781 1724.96,614.699 2090.63,1023.3 l -125.18,124.87" style="fill:#2a333f;fill-opacity:1;fill-rule:evenodd;stroke:none" id="path22"/><path d="M 3633.82,2973.1 H 2751.78 L 2491.9,2761.42 2231.99,2973.1 H 1349.94 L 2491.9,2043.21 3633.82,2973.1" style="fill:#2a333f;fill-opacity:1;fill-rule:evenodd;stroke:none" id="path24"/><path d="M 2220.93,329.781 2491.9,659.75 2762.84,329.781 2491.9,0 2220.93,329.781" style="fill:#2a333f;fill-opacity:1;fill-rule:evenodd;stroke:none" id="path26"/></g></g></svg>